<svg xmlns="http://www.w3.org/2000/svg" xmlns:xlink="http://www.w3.org/1999/xlink" viewBox="0 0 200.03 200.03"><defs><style>.cls-1{fill:#004480;}.cls-2{fill:#004283;}.cls-3{fill:#0074af;}.cls-4{fill:#5abcfd;}.cls-5{clip-path:url(#clip-path);}.cls-6{fill:#ceedee;opacity:0.23;}.cls-7{fill:#0484cb;}.cls-8{fill:#fff;}.cls-9{fill:none;stroke:#ff7e8f;stroke-miterlimit:10;stroke-width:6.61px;}.cls-10{fill:#ff7e8f;}</style><clipPath id="clip-path"><path id="_Trazado_de_recorte_" data-name="&lt;Trazado de recorte&gt;" class="cls-1" d="M169.18,156a4.23,4.23,0,0,1-4.2,4.26H34.16A4.23,4.23,0,0,1,30,156V81.51a4.23,4.23,0,0,1,4.2-4.26H165a4.23,4.23,0,0,1,4.2,4.26Z"/></clipPath></defs><title>customers</title><g id="Capa_2" data-name="Capa 2"><g id="Capa_1-2" data-name="Capa 1"><circle class="cls-2" cx="100.02" cy="100.02" r="100.02"/><rect class="cls-3" x="25.42" y="74.97" width="149.2" height="100.45" rx="7.83" ry="7.83"/><rect class="cls-4" x="25.42" y="71.95" width="149.2" height="100.45" rx="7.83" ry="7.83"/><path id="_Trazado_de_recorte_2" data-name="&lt;Trazado de recorte&gt;" class="cls-1" d="M169.18,156a4.23,4.23,0,0,1-4.2,4.26H34.16A4.23,4.23,0,0,1,30,156V81.51a4.23,4.23,0,0,1,4.2-4.26H165a4.23,4.23,0,0,1,4.2,4.26Z"/><g class="cls-5"><polygon class="cls-6" points="49.25 162.64 141.15 72.79 172.75 72.79 172.75 162.1 49.25 162.64"/></g><rect class="cls-7" x="12.11" y="171.85" width="175.82" height="9.82"/><rect class="cls-1" x="16.57" y="167.39" width="166" height="4.46"/><rect class="cls-4" x="86.18" y="171.85" width="28.56" height="3.57"/><rect class="cls-8" x="39.9" y="86.66" width="120.92" height="65.22" rx="3.3" ry="3.3"/><path id="_Trazado_compuesto_" data-name="&lt;Trazado compuesto&gt;" class="cls-2" d="M56.92,110.18h5v.1l-1.84,1.87H56.92Zm-.1-3.42a6.91,6.91,0,0,1-3.72-.91c-6.83,1.91-6,10.37-6,10.37H66.66s.91-8.56-6-10.47a8.48,8.48,0,0,1-3.82,1M51.29,99.6a5.53,5.53,0,1,0,5.53-5.53,5.5,5.5,0,0,0-5.53,5.53"/><path id="_Trazado_compuesto_2" data-name="&lt;Trazado compuesto&gt;" class="cls-2" d="M56.92,138.29h5v.1l-1.84,1.87H56.92Zm-.1-3.43a6.83,6.83,0,0,1-3.72-.9c-6.83,1.91-6,10.37-6,10.37H66.66s.91-8.56-6-10.47a8.4,8.4,0,0,1-3.82,1m-5.53-7.15a5.53,5.53,0,1,0,5.53-5.54,5.5,5.5,0,0,0-5.53,5.54"/><rect class="cls-2" x="72.87" y="98.75" width="75.85" height="2.56" rx="1.28" ry="1.28"/><rect class="cls-2" x="72.87" y="107.17" width="75.85" height="2.56" rx="1.28" ry="1.28"/><rect class="cls-2" x="72.87" y="129.89" width="75.85" height="2.56" rx="1.28" ry="1.28"/><rect class="cls-2" x="72.87" y="138.32" width="75.85" height="2.56" rx="1.28" ry="1.28"/><line class="cls-9" x1="99.51" y1="43.35" x2="99.51" y2="73.73"/><polygon class="cls-10" points="86.01 69.78 99.51 93.17 113.02 69.78 86.01 69.78"/><path class="cls-8" d="M120.13,45.25l21.15.07a12.61,12.61,0,0,0-16.7-17.89A22.33,22.33,0,0,0,80.49,23.8a14.6,14.6,0,0,0-8.08-2.44A14.76,14.76,0,0,0,60.65,45.11l23.38,0"/></g></g></svg>